<?xml version="1.0" standalone="no"?>
<!DOCTYPE svg PUBLIC "-//W3C//DTD SVG 20010904//EN"
 "http://www.w3.org/TR/2001/REC-SVG-20010904/DTD/svg10.dtd">
<svg version="1.0" xmlns="http://www.w3.org/2000/svg"
 width="260.000000pt" height="260.000000pt" viewBox="0 0 260.000000 260.000000"
 preserveAspectRatio="xMidYMid meet">
<metadata>
Created by potrace 1.11, written by Peter Selinger 2001-2013
</metadata>
<g transform="translate(0.000000,260.000000) scale(0.100000,-0.100000)"
fill="#000000" stroke="none">
<path d="M0 1295 l0 -1295 1300 0 1300 0 0 1295 0 1295 -1300 0 -1300 0 0
-1295z m1023 752 c72 -33 140 -96 172 -160 l25 -52 -54 -47 c-97 -85 -146
-192 -146 -319 l0 -56 -44 -17 c-96 -37 -166 -111 -199 -210 -10 -27 -17 -64
-17 -82 0 -22 -5 -34 -17 -38 -10 -3 -94 -2 -188 2 -188 9 -216 16 -279 78
-59 58 -80 108 -80 194 0 86 18 131 79 193 49 50 112 77 182 77 49 0 54 2 48
20 -61 191 37 369 240 437 66 21 210 11 278 -20z m639 -260 c31 -15 76 -48
101 -73 47 -46 97 -133 97 -166 0 -16 6 -14 40 11 79 57 172 50 234 -19 42
-46 50 -73 44 -141 -5 -47 -4 -50 21 -55 99 -21 175 -74 213 -148 12 -24 23
-68 26 -107 4 -56 1 -75 -20 -120 -28 -60 -84 -119 -138 -146 -32 -17 -78 -18
-639 -15 -498 2 -610 5 -638 17 -54 23 -111 72 -141 123 -24 41 -27 57 -27
132 0 75 3 91 27 131 52 89 135 138 232 139 51 0 57 2 51 18 -4 9 -12 43 -18
75 -20 114 38 237 146 311 78 54 126 66 237 63 81 -2 104 -7 152 -30z"/>
</g>
</svg>
